<svg height="35" viewBox="0 0 764 35" width="764" xmlns="http://www.w3.org/2000/svg" xmlns:xlink="http://www.w3.org/1999/xlink"><mask id="a" fill="#fff"><path d="m.71586463.12385714 22.41439277 29.04852386c4.8880132 6.3358095 11.9392799 6.3358095 16.8272931 0l13.9985092-18.1440953c4.8880132-6.33580951 11.9381613-6.33580951 16.827293-.0017619l14.0007463 18.1458572c4.8880132 6.3358095 11.9392798 6.3358095 16.827293 0l13.998509-18.1440953c4.888013-6.33580951 11.93928-6.33580951 16.827293-.0017619l13.999628 18.1458572c4.889132 6.3358095 11.940398 6.3358095 16.828412 0l13.998509-18.1440953c4.888013-6.33580951 11.93928-6.33580951 16.828411-.0017619l13.999628 18.1458572c4.889132 6.3358095 11.93928 6.3358095 16.827293 0l13.999628-18.1440953c4.888013-6.33580951 11.93928-6.33580951 16.827293-.0017619l14.001865 18.1458572c4.888013 6.3358095 11.938161 6.3358095 16.826174 0l13.999628-18.1440953c4.888013-6.33580951 11.93928-6.33580951 16.827293 0l14.000746 18.1440953c4.888014 6.3358095 11.938162 6.3358095 16.827293 0l14.000747-18.1458572c4.888013-6.33404761 11.939279-6.33404761 16.827293 0l13.999627 18.1458572c4.888014 6.3358095 11.93928 6.3358095 16.827293 0l13.999628-18.1458572c4.888013-6.33404761 11.93928-6.33404761 16.827293 0l14.002984 18.1476191c4.888013 6.3358095 11.939279 6.3340476 16.827293-.0017619l13.999627-18.1458572c4.888014-6.33404761 11.93928-6.33404761 16.827293 0l14.000747 18.1458572c4.888013 6.3358095 11.93928 6.3358095 16.827293 0l13.999628-18.1458572c4.889131-6.33404761 11.939279-6.33404761 16.827293 0l14.001864 18.1476191c4.888014 6.3340476 11.93928 6.3358095 16.827293 0l14.000747-18.1476191c4.889131-6.33404761 11.93928-6.33404761 16.827293 0l14.001865 18.1458572c4.888013 6.3358095 11.940398 6.3358095 16.828411-.001762l13.995154-18.1405714c4.886894-6.3358095 11.938161-6.33757141 16.827293-.0017619l13.999627 18.1440953c4.888014 6.3358095 11.940399 6.3358095 16.828412-.001762l13.995154-18.1423333c4.889131-6.3340476 11.940398-6.3340476 16.828411 0l13.997391 18.1440953c4.888013 6.3358095 11.940398 6.3358095 16.828411 0l13.99851-18.1440953c4.889131-6.3340476 11.940398-6.3340476 16.828411 0l13.997391 18.1440953c4.888013 6.3358095 11.938161 6.3358095 16.826174 0l14.000747-18.1458572c4.888013-6.33404761 11.93928-6.33404761 16.827293 0l14.002983 18.1476191c4.888013 6.3358095 11.938161 6.3340476 16.827293 0l13.999628-18.1476191c4.888013-6.33404761 11.940398-6.33404761 16.828411.0017619l13.999628 18.1440953c4.888013 6.3358095 11.93928 6.3358095 16.827293 0l13.998509-18.1458572c4.888014-6.33404761 11.940399-6.33404761 16.828412 0l14.000747 18.1458572c4.88801 6.3358095 11.93928 6.3375714 16.82729.0017619l14.00187-18.1476191c4.88689-6.33404761 11.93816-6.33404761 16.82617-.0017619l14.00634 18.149381c4.88801 6.3358095 11.93816 6.3358095 16.82618 0l14.00186-18.1476191c4.88801-6.33404761 11.93928-6.33404761 16.82729-.0017619l14.00522 18.149381c4.8869 6.3358095 11.93816 6.3358095 16.82618 0l14.00298-18.1476191c4.88801-6.33404761 11.93816-6.33404761 16.82618-.0017619l14.00522 18.149381c4.88689 6.3358095 11.93816 6.3358095 16.82617 0l14.0041-18.149381c4.88802-6.33228571 11.93816-6.33228571 16.82618 0l14.00634 18.149381c4.88801 6.3358095 11.93816 6.3340476 16.82729-.0017619l13.99851-18.1458572c4.88801-6.33404761 11.93928-6.33404761 16.82729 0l14.00298 18.1476191c4.88802 6.3358095 11.93928 6.3358095 16.8273 0l14.00298-18.149381c4.88801-6.33228571 11.93816-6.33404761 16.82618 0l14.00857 18.1511429c4.88801 6.3340476 11.93704 6.3340476 16.82506 0l14.00857-18.1511429c4.88802-6.33404761 11.93817-6.33404761 16.82618 0l14.00857 18.1529048c4.8869 6.3322857 11.93705 6.3340476 16.82506 0l14.01081-18.1546667c4.88802-6.33228571 11.93705-6.33228571 16.82506 0l14.01529 18.1564286c4.88689 6.3322857 11.93592 6.3322857 16.82282 0l22.42893-29.05557146" fill="#fff" fill-rule="evenodd"/></mask><g fill="none" fill-rule="evenodd" mask="url(#a)" transform="translate(-778.234599 .828)"><path d="m338.917162-142.190476h1256.11872v214.952381h-1256.11872z" fill="#fff" fill-rule="evenodd"/><path d="m339.417162-141.690476h1255.11872v213.952381h-1255.11872z" stroke="#979797"/></g></svg>